<svg width="366" height="222" viewBox="0 0 366 222" fill="none" xmlns="http://www.w3.org/2000/svg">
<g filter="url(#filter0_d_1571_10136)">
<path d="M24.335 32.2524C24.335 25.625 29.7075 20.2524 36.335 20.2524H331.335C337.962 20.2524 343.335 25.625 343.335 32.2524V178.252C343.335 184.88 337.962 190.252 331.335 190.252H36.335C29.7075 190.252 24.335 184.88 24.335 178.252V32.2524Z" fill="url(#paint0_linear_1571_10136)"/>
</g>
<mask id="mask0_1571_10136" style="mask-type:alpha" maskUnits="userSpaceOnUse" x="24" y="20" width="320" height="171">
<path d="M24.335 32.2524C24.335 25.625 29.7075 20.2524 36.335 20.2524H331.335C337.962 20.2524 343.335 25.625 343.335 32.2524V178.252C343.335 184.88 337.962 190.252 331.335 190.252H36.335C29.7075 190.252 24.335 184.88 24.335 178.252V32.2524Z" fill="url(#paint1_linear_1571_10136)"/>
</mask>
<g mask="url(#mask0_1571_10136)">
<path d="M294.299 83.4417C349.021 47.7312 310.66 -2.16028 284.64 -22.6422C204.185 -85.2268 194.756 -12.3015 78.5587 -65.9659C-37.6386 -119.63 -14.3438 -81.8645 -161.496 99.3928C-308.648 280.65 -115.714 278.535 -92.0833 243.008C-68.4526 207.48 -25.8155 224.07 27.1475 278.787C80.1105 333.504 213.256 237.012 190.162 178.859C167.067 120.706 225.897 128.08 294.299 83.4417Z" stroke="white" stroke-opacity="0.13"/>
<path d="M270.088 85.4052C319.393 53.194 284.82 8.17671 261.371 -10.3055C188.864 -66.78 180.377 -0.987612 75.6641 -49.4188C-29.0489 -97.8499 -8.05293 -63.7745 -140.629 99.7379C-273.206 263.25 -99.3521 261.367 -78.0628 229.317C-56.7736 197.267 -18.3509 212.24 29.3813 261.613C77.1136 310.985 197.08 223.947 176.261 171.478C155.443 119.009 208.456 125.669 270.088 85.4052Z" stroke="white" stroke-opacity="0.13"/>
<path d="M251.308 86.825C296.407 57.3944 264.792 16.2767 243.348 -0.603344C177.042 -52.182 169.271 7.91888 73.5073 -36.3082C-22.256 -80.5353 -3.05766 -49.411 -124.332 99.971C-245.607 249.353 -86.6014 247.61 -67.1263 218.33C-47.6512 189.05 -12.512 202.723 31.1371 247.818C74.7862 292.912 184.517 213.389 165.484 165.463C146.451 117.536 194.935 123.613 251.308 86.825Z" stroke="white" stroke-opacity="0.13"/>
<path d="M233.582 88.7443C274.69 61.8994 245.868 24.3862 226.319 8.98525C165.872 -38.074 158.794 16.7537 71.4964 -23.6014C-15.801 -63.9565 1.70193 -35.5611 -108.834 100.706C-219.371 236.973 -74.4282 235.396 -56.678 208.686C-38.9277 181.977 -6.89527 194.453 32.8972 235.595C72.6896 276.737 172.709 204.199 155.355 160.476C138.001 116.752 182.198 122.3 233.582 88.7443Z" stroke="white" stroke-opacity="0.13"/>
<path d="M214.31 90.2209C251.093 66.1701 225.295 32.5491 207.799 18.7448C153.699 -23.4354 147.372 25.6966 69.2442 -10.4797C-8.88374 -46.656 6.78366 -21.2073 -92.1151 100.89C-191.014 222.988 -61.3056 221.596 -45.4249 197.663C-29.5442 173.73 -0.87663 184.916 34.7394 221.79C70.3554 258.665 159.852 193.676 144.316 154.491C128.779 115.306 168.332 120.284 214.31 90.2209Z" stroke="white" stroke-opacity="0.13"/>
<path d="M194.048 91.7568C226.291 70.6951 203.683 41.261 188.348 29.1766C140.935 -7.74832 135.384 35.2699 66.9095 3.60438C-1.56513 -28.0612 12.1645 -5.78128 -74.5331 101.132C-161.231 208.046 -47.5421 206.813 -33.6201 185.856C-19.6981 164.9 5.42755 174.69 36.6407 206.972C67.8538 239.254 146.304 182.342 132.691 148.036C119.078 113.73 153.745 118.084 194.048 91.7568Z" stroke="white" stroke-opacity="0.13"/>
</g>
<defs>
<filter id="filter0_d_1571_10136" x="2.33496" y="7.25244" width="363" height="214" filterUnits="userSpaceOnUse" color-interpolation-filters="sRGB">
<feFlood flood-opacity="0" result="BackgroundImageFix"/>
<feColorMatrix in="SourceAlpha" type="matrix" values="0 0 0 0 0 0 0 0 0 0 0 0 0 0 0 0 0 0 127 0" result="hardAlpha"/>
<feOffset dy="9"/>
<feGaussianBlur stdDeviation="11"/>
<feColorMatrix type="matrix" values="0 0 0 0 0 0 0 0 0 0 0 0 0 0 0 0 0 0 0.12 0"/>
<feBlend mode="normal" in2="BackgroundImageFix" result="effect1_dropShadow_1571_10136"/>
<feBlend mode="normal" in="SourceGraphic" in2="effect1_dropShadow_1571_10136" result="shape"/>
</filter>
<linearGradient id="paint0_linear_1571_10136" x1="343.335" y1="13.7524" x2="18.2779" y2="139.466" gradientUnits="userSpaceOnUse">
<stop stop-color="#9CEA38"/>
<stop offset="1" stop-color="#44A259"/>
</linearGradient>
<linearGradient id="paint1_linear_1571_10136" x1="330.335" y1="20.2524" x2="19.0186" y2="142.096" gradientUnits="userSpaceOnUse">
<stop stop-color="white"/>
<stop offset="0.0001" stop-color="#F8F8FF"/>
<stop offset="1" stop-color="#F8F8FF"/>
</linearGradient>
</defs>
</svg>
