<svg width="200" height="200" viewBox="0 0 200 200" fill="none" xmlns="http://www.w3.org/2000/svg">
<g clip-path="url(#clip0_1065_61897)">
<mask id="mask0_1065_61897" style="mask-type:luminance" maskUnits="userSpaceOnUse" x="0" y="0" width="200" height="200">
<path d="M200 0H0V200H200V0Z" fill="white"/>
</mask>
<g mask="url(#mask0_1065_61897)">
<path d="M94.8063 160.028C144.237 165.03 169.713 152.871 171.234 123.549C173.514 79.5654 135.096 84.3168 123.908 72.7249C112.719 61.133 125.253 77.6065 103.705 53.5854C89.3396 37.571 70.1975 37.4888 46.2792 53.3393C26.9863 69.0414 24.8997 89.634 40.0187 115.116C55.1377 140.598 73.4 155.569 94.8063 160.028Z" fill="#EEF5D8"/>
<mask id="mask1_1065_61897" style="mask-type:luminance" maskUnits="userSpaceOnUse" x="71" y="50" width="79" height="23">
<path d="M149.022 50.0303H71.2285L71.1836 72.2745H148.976L149.022 50.0303Z" fill="white"/>
</mask>
<g mask="url(#mask1_1065_61897)">
<path d="M72.3419 51.1583C82.3108 51.1583 83.5569 57.0505 83.5569 62.9321V69.349C83.5569 70.3658 84.3301 71.192 85.2815 71.192L144.02 70.6811C144.972 70.6811 145.744 69.8555 145.744 68.8387V61.9209C145.744 55.6107 140.958 50.4941 135.055 50.4941C134.655 50.4941 71.9245 51.1583 72.3419 51.1583Z" fill="#E6E6E6"/>
<path d="M72.3403 52.2371C72.3403 53.1991 73.1223 53.9798 74.0849 53.9798C135.067 53.9798 135.079 53.9792 135.09 53.9798C139.086 53.9867 142.324 57.2527 142.33 61.2845V69.5511H144.055C145.006 69.5511 145.779 68.7723 145.779 67.8122V61.2845C145.805 55.3225 141.034 50.4689 135.125 50.4434H135.056H134.412C134.254 50.4527 134.1 50.4783 133.943 50.4951H74.0824C73.1204 50.4951 72.3403 51.2751 72.3403 52.2371Z" fill="#E6E6E6"/>
</g>
<mask id="mask2_1065_61897" style="mask-type:luminance" maskUnits="userSpaceOnUse" x="47" y="48" width="97" height="106">
<path d="M143.054 48.9092H47.3521V153.115H143.054V48.9092Z" fill="white"/>
</mask>
<g mask="url(#mask2_1065_61897)">
<path d="M135.055 53.7642V50.4932H72.9449C64.8066 50.5056 58.2122 57.1555 58.1997 65.3611V150.736C58.1997 151.696 58.9723 152.474 59.9237 152.474H113.103C121.231 152.449 127.809 145.802 127.815 137.607V61.2707V61.1891C127.865 57.191 131.091 53.7754 135.055 53.7698C135.071 53.7698 135.086 53.7648 135.102 53.7642H135.055Z" fill="white"/>
<path d="M72.9115 50.4934C64.7725 50.5065 58.1775 57.1563 58.165 65.3619V115.344L95.3002 50.4473L72.9115 50.4934Z" fill="#F0F0F0"/>
<path d="M58.1994 85.5212V66.4633C58.2124 58.257 64.8068 51.6078 72.9458 51.5947H135.055M53.7856 150.111C57.4947 150.111 58.1657 146.17 58.1657 143.679C58.1657 123.314 58.1994 108.917 58.1994 103.753M58.524 91.3436V93.6334" stroke="#E6E6E6" stroke-width="7.2" stroke-miterlimit="10" stroke-linecap="round"/>
<path d="M135.055 50.4414H134.412C128.774 50.7847 124.374 55.4919 124.366 61.1897V61.3523V137.564C124.356 142.757 120.877 147.29 115.896 148.602C115.352 148.744 114.794 148.813 114.237 148.819V148.821H114.194H114.15H49.6777C52.2659 151.106 55.6516 152.494 59.3606 152.497H59.3837H77.9724H113.104C113.483 152.497 114.068 152.497 114.448 152.44C115.118 152.378 115.782 152.266 116.436 152.104C123.113 150.535 127.841 144.537 127.85 137.621V61.2476V61.1666C127.899 57.419 130.746 54.3168 134.445 53.9779C134.65 53.9666 135.041 53.9679 135.244 53.9779L135.055 50.4414Z" fill="#E6E6E6"/>
</g>
<mask id="mask3_1065_61897" style="mask-type:luminance" maskUnits="userSpaceOnUse" x="43" y="133" width="72" height="20">
<path d="M114.291 133.205H43.6143V152.804H114.291V133.205Z" fill="white"/>
</mask>
<g mask="url(#mask3_1065_61897)">
<path d="M135.055 50.4424H134.411C128.774 50.7863 124.375 55.4929 124.367 61.1907V61.3533V137.564C124.356 142.758 120.878 147.292 115.897 148.603C114.766 148.898 113.579 148.898 112.448 148.603C107.452 147.273 103.975 142.708 103.988 137.495V135.176C103.995 134.216 103.229 133.431 102.277 133.426H91.3492H82.5636H69.019H54.8377H46.3617C45.4103 133.426 44.6377 134.205 44.6377 135.165V137.623C44.6302 145.832 51.2234 152.492 59.3611 152.498H59.3829H77.9717H113.103C113.482 152.498 114.068 152.498 114.448 152.441C115.118 152.379 115.783 152.267 116.436 152.105C123.113 150.537 127.841 144.538 127.849 137.623V61.2492V61.1676C127.898 57.4206 130.746 54.3171 134.446 53.9795C134.66 53.9676 134.874 53.9676 135.089 53.9795C139.086 53.9857 142.324 57.2523 142.331 61.2835V69.5508H144.055C145.007 69.5508 145.779 68.772 145.779 67.8119V61.2835C145.804 55.3215 141.034 50.4685 135.124 50.4424H135.055Z" fill="#E6E6E6"/>
</g>
<mask id="mask4_1065_61897" style="mask-type:luminance" maskUnits="userSpaceOnUse" x="0" y="0" width="200" height="200">
<path d="M0 0H200V200H0V0Z" fill="white"/>
</mask>
<g mask="url(#mask4_1065_61897)">
<mask id="mask5_1065_61897" style="mask-type:luminance" maskUnits="userSpaceOnUse" x="59" y="52" width="70" height="98">
<path d="M128.505 52.8037C124.455 52.8037 72.1183 52.8037 72.1183 52.8037L62.9283 59.3458L59.5015 79.1277V133.489C59.5015 133.489 101.246 133.489 102.492 133.489C103.738 133.489 103.894 134.579 103.894 135.358C103.894 136.137 104.673 149.065 113.863 149.065C123.053 149.065 124.299 140.654 124.299 135.981C124.299 131.308 124.299 61.6822 124.299 60.1246C124.299 58.567 126.168 53.8941 128.505 52.8037Z" fill="white"/>
</mask>
<g mask="url(#mask5_1065_61897)">
<path d="M88.0288 82.7248C88.8805 82.2104 89.9877 82.4831 90.5039 83.3333L97.0261 94.074C97.5408 94.9215 97.2707 96.0258 96.4231 96.5408L96.4195 96.543C95.5679 97.057 94.4606 96.7851 93.944 95.9344L87.4218 85.1941C86.9072 84.3462 87.1773 83.2419 88.0248 82.7273L88.0288 82.7248Z" fill="#CAD8E9"/>
<path d="M89.434 84.9599C95.9635 81.382 98.3607 73.198 94.7892 66.68C91.2174 60.1615 83.0291 57.7777 76.4997 61.3555C69.9704 64.9333 67.5722 73.118 71.144 79.6364C74.7157 86.1545 82.9045 88.5378 89.434 84.9599Z" fill="#CAD8E9"/>
<path d="M89.434 84.9599C95.9635 81.382 98.3607 73.198 94.7892 66.68C91.2174 60.1615 83.0291 57.7777 76.4997 61.3555C69.9704 64.9333 67.5722 73.118 71.144 79.6364C74.7157 86.1545 82.9045 88.5378 89.434 84.9599Z" stroke="#CAD8E9" stroke-width="4.32159" stroke-miterlimit="10"/>
</g>
</g>
<path d="M72.0903 118.261H88.947" stroke="#A9CC3D" stroke-width="7.2" stroke-miterlimit="10" stroke-linecap="round"/>
<path d="M72.0903 102.561H88.947" stroke="#A9CC3D" stroke-width="7.2" stroke-miterlimit="10" stroke-linecap="round"/>
<path d="M72.0898 86.8584H110.299" stroke="#A9CC3D" stroke-width="7.2" stroke-miterlimit="10" stroke-linecap="round"/>
<path d="M72.0898 70.0361H114.714" stroke="#A9CC3D" stroke-width="7.2" stroke-miterlimit="10" stroke-linecap="round"/>
<path d="M93.2691 78.6213C94.1208 78.1069 95.2279 78.3796 95.7442 79.2298L102.266 89.9705C102.781 90.818 102.511 91.9223 101.663 92.4373L101.66 92.4395C100.808 92.9535 99.7008 92.6816 99.1843 91.8309L92.662 81.0905C92.1474 80.2427 92.4175 79.1384 93.265 78.6237L93.2691 78.6213Z" fill="#A9CC3D"/>
<path d="M94.6742 80.8564C101.204 77.2785 103.601 69.0945 100.029 62.5764C96.4576 56.058 88.2693 53.6742 81.7399 57.252C75.2106 60.8298 72.8124 69.0145 76.3842 75.5329C79.9559 82.051 88.1447 84.4343 94.6742 80.8564Z" fill="white"/>
<path d="M94.6742 80.8564C101.204 77.2785 103.601 69.0945 100.029 62.5764C96.4576 56.058 88.2693 53.6742 81.7399 57.252C75.2106 60.8298 72.8124 69.0145 76.3842 75.5329C79.9559 82.051 88.1447 84.4343 94.6742 80.8564Z" stroke="#A9CC3D" stroke-width="4.32159" stroke-miterlimit="10"/>
</g>
</g>
<defs>
<clipPath id="clip0_1065_61897">
<rect width="200" height="200" fill="white"/>
</clipPath>
</defs>
</svg>
