<svg width="29" height="28" viewBox="0 0 29 28" fill="none" xmlns="http://www.w3.org/2000/svg">
<g clip-path="url(#clip0_1441_31589)">
<path d="M25.9239 21.8207C25.5156 22.7718 25.0113 23.6787 24.4189 24.5274C23.6268 25.6562 22.9787 26.4372 22.4793 26.8712C21.7053 27.5829 20.8752 27.9481 19.9868 27.9685C19.3492 27.9685 18.5803 27.7871 17.6849 27.419C16.7866 27.0527 15.9612 26.8707 15.2063 26.8707C14.4148 26.8707 13.566 27.0527 12.6578 27.419C11.7483 27.7871 11.0157 27.979 10.4557 27.9977C9.604 28.0344 8.75467 27.6593 7.9065 26.8712C7.36575 26.3987 6.68967 25.5902 5.87884 24.4446C5.00909 23.2207 4.29392 21.8021 3.73392 20.1839C3.13425 18.4368 2.83325 16.7446 2.83325 15.1066C2.83325 13.23 3.23867 11.6118 4.05067 10.2556C4.68942 9.16592 5.53817 8.30725 6.601 7.67608C7.6437 7.05211 8.83344 6.71633 10.0485 6.70308C10.7252 6.70308 11.6124 6.9125 12.7155 7.32375C13.8151 7.73617 14.5209 7.94558 14.8307 7.94558C15.0617 7.94558 15.8463 7.70058 17.1757 7.21292C18.4333 6.76025 19.4944 6.573 20.3636 6.64708C22.7197 6.83725 24.4895 7.76592 25.6661 9.43892C23.5597 10.7152 22.5173 12.5032 22.5383 14.7968C22.5569 16.5836 23.205 18.0705 24.479 19.2506C25.0565 19.7989 25.7011 20.2224 26.418 20.5228C26.2677 20.9608 26.1029 21.3937 25.9239 21.8207ZM20.5211 0.560583C20.5211 1.96058 20.0095 3.26842 18.9898 4.47825C17.759 5.91733 16.2709 6.74858 14.6568 6.61733C14.6351 6.44122 14.6242 6.26394 14.6242 6.0865C14.6242 4.7425 15.2093 3.304 16.2488 2.12742C16.7679 1.53183 17.4271 1.03658 18.2274 0.641667C19.0266 0.252583 19.7814 0.0373333 20.4919 0C20.5123 0.18725 20.5211 0.3745 20.5211 0.56V0.560583Z" fill="white"/>
</g>
<defs>
<clipPath id="clip0_1441_31589">
<rect width="28" height="28" fill="white" transform="translate(0.5)"/>
</clipPath>
</defs>
</svg>
