<svg width="25" height="25" viewBox="0 0 25 25" fill="none" xmlns="http://www.w3.org/2000/svg">
<g clip-path="url(#clip0_3075_41560)">
<path d="M9.09961 11.3701C8.9007 11.3701 8.70993 11.4491 8.56928 11.5898C8.42863 11.7304 8.34961 11.9212 8.34961 12.1201C8.34961 12.319 8.42863 12.5098 8.56928 12.6504C8.70993 12.7911 8.9007 12.8701 9.09961 12.8701H16.5996C16.7985 12.8701 16.9893 12.7911 17.1299 12.6504C17.2706 12.5098 17.3496 12.319 17.3496 12.1201C17.3496 11.9212 17.2706 11.7304 17.1299 11.5898C16.9893 11.4491 16.7985 11.3701 16.5996 11.3701H9.09961ZM8.34961 15.1201C8.34961 14.9212 8.42863 14.7304 8.56928 14.5898C8.70993 14.4491 8.9007 14.3701 9.09961 14.3701H16.5996C16.7985 14.3701 16.9893 14.4491 17.1299 14.5898C17.2706 14.7304 17.3496 14.9212 17.3496 15.1201C17.3496 15.319 17.2706 15.5098 17.1299 15.6504C16.9893 15.7911 16.7985 15.8701 16.5996 15.8701H9.09961C8.9007 15.8701 8.70993 15.7911 8.56928 15.6504C8.42863 15.5098 8.34961 15.319 8.34961 15.1201ZM8.34961 18.1201C8.34961 17.9212 8.42863 17.7304 8.56928 17.5898C8.70993 17.4491 8.9007 17.3701 9.09961 17.3701H12.0996C12.2985 17.3701 12.4893 17.4491 12.6299 17.5898C12.7706 17.7304 12.8496 17.9212 12.8496 18.1201C12.8496 18.319 12.7706 18.5098 12.6299 18.6504C12.4893 18.7911 12.2985 18.8701 12.0996 18.8701H9.09961C8.9007 18.8701 8.70993 18.7911 8.56928 18.6504C8.42863 18.5098 8.34961 18.319 8.34961 18.1201Z" fill="white"/>
<path d="M15.0996 0.870117H6.84961C6.05396 0.870117 5.2909 1.18619 4.72829 1.7488C4.16568 2.31141 3.84961 3.07447 3.84961 3.87012V21.8701C3.84961 22.6658 4.16568 23.4288 4.72829 23.9914C5.2909 24.554 6.05396 24.8701 6.84961 24.8701H18.8496C19.6453 24.8701 20.4083 24.554 20.9709 23.9914C21.5335 23.4288 21.8496 22.6658 21.8496 21.8701V7.62012L15.0996 0.870117ZM15.0996 2.37012V5.37012C15.0996 5.96685 15.3367 6.53915 15.7586 6.96111C16.1806 7.38306 16.7529 7.62012 17.3496 7.62012H20.3496V21.8701C20.3496 22.2679 20.1916 22.6495 19.9103 22.9308C19.629 23.2121 19.2474 23.3701 18.8496 23.3701H6.84961C6.45178 23.3701 6.07025 23.2121 5.78895 22.9308C5.50764 22.6495 5.34961 22.2679 5.34961 21.8701V3.87012C5.34961 3.47229 5.50764 3.09076 5.78895 2.80946C6.07025 2.52815 6.45178 2.37012 6.84961 2.37012H15.0996Z" fill="white"/>
</g>
<defs>
<clipPath id="clip0_3075_41560">
<rect width="24" height="24" fill="white" transform="translate(0.849609 0.870117)"/>
</clipPath>
</defs>
</svg>
