<svg width="45" height="44" viewBox="0 0 45 44" fill="none" xmlns="http://www.w3.org/2000/svg">
<rect x="0.5" width="44" height="44" rx="5" fill="white" fill-opacity="0.1"/>
<g clip-path="url(#clip0_1441_31617)">
<path d="M32.4804 17.8801C32.4336 16.8174 32.2617 16.0868 32.0156 15.4537C31.7616 14.7818 31.3709 14.1801 30.859 13.68C30.3589 13.1721 29.7533 12.7774 29.0891 12.5274C28.4524 12.2813 27.7256 12.1094 26.663 12.0626C25.5923 12.0118 25.2525 12 22.5371 12C19.8217 12 19.4818 12.0118 18.4152 12.0586C17.3525 12.1055 16.6219 12.2775 15.989 12.5235C15.3169 12.7774 14.7153 13.1681 14.2152 13.68C13.7073 14.1801 13.3127 14.7857 13.0626 15.4499C12.8164 16.0868 12.6446 16.8134 12.5977 17.8761C12.5469 18.9467 12.5352 19.2866 12.5352 22.002C12.5352 24.7173 12.5469 25.0572 12.5938 26.1239C12.6406 27.1865 12.8126 27.9171 13.0588 28.5502C13.3127 29.2221 13.7073 29.8238 14.2152 30.3239C14.7153 30.8318 15.3209 31.2265 15.9851 31.4765C16.6219 31.7226 17.3486 31.8945 18.4114 31.9413C19.4779 31.9883 19.8179 31.9999 22.5333 31.9999C25.2486 31.9999 25.5885 31.9883 26.6552 31.9413C27.7178 31.8945 28.4484 31.7226 29.0813 31.4765C30.4254 30.9568 31.4881 29.8941 32.0078 28.5502C32.2538 27.9133 32.4258 27.1865 32.4726 26.1239C32.5195 25.0572 32.5312 24.7173 32.5312 22.002C32.5312 19.2866 32.5273 18.9467 32.4804 17.8801ZM30.6794 26.0457C30.6364 27.0225 30.4723 27.5499 30.3355 27.9015C29.9995 28.7728 29.308 29.4643 28.4367 29.8004C28.085 29.9372 27.5538 30.1012 26.5808 30.1441C25.526 30.1911 25.2096 30.2027 22.5411 30.2027C19.8725 30.2027 19.5522 30.1911 18.5011 30.1441C17.5244 30.1012 16.9969 29.9372 16.6453 29.8004C16.2117 29.6402 15.817 29.3862 15.4967 29.0541C15.1646 28.7298 14.9106 28.3391 14.7504 27.9055C14.6137 27.5539 14.4496 27.0225 14.4067 26.0497C14.3597 24.9948 14.3481 24.6783 14.3481 22.0097C14.3481 19.3412 14.3597 19.0209 14.4067 17.9699C14.4496 16.9932 14.6137 16.4657 14.7504 16.1141C14.9106 15.6804 15.1646 15.2859 15.5007 14.9654C15.8248 14.6333 16.2155 14.3793 16.6493 14.2192C17.0009 14.0825 17.5323 13.9184 18.5051 13.8754C19.56 13.8285 19.8765 13.8168 22.5449 13.8168C25.2174 13.8168 25.5337 13.8285 26.5848 13.8754C27.5616 13.9184 28.089 14.0825 28.4406 14.2192C28.8742 14.3793 29.2689 14.6333 29.5892 14.9654C29.9213 15.2897 30.1753 15.6804 30.3355 16.1141C30.4723 16.4657 30.6364 16.997 30.6794 17.9699C30.7262 19.0248 30.738 19.3412 30.738 22.0097C30.738 24.6783 30.7262 24.9908 30.6794 26.0457Z" fill="white"/>
<path d="M22.5371 16.8643C19.7007 16.8643 17.3994 19.1654 17.3994 22.002C17.3994 24.8385 19.7007 27.1397 22.5371 27.1397C25.3737 27.1397 27.6749 24.8385 27.6749 22.002C27.6749 19.1654 25.3737 16.8643 22.5371 16.8643ZM22.5371 25.3347C20.697 25.3347 19.2044 23.8422 19.2044 22.002C19.2044 20.1617 20.697 18.6693 22.5371 18.6693C24.3774 18.6693 25.8698 20.1617 25.8698 22.002C25.8698 23.8422 24.3774 25.3347 22.5371 25.3347Z" fill="white"/>
<path d="M29.0775 16.6611C29.0775 17.3235 28.5404 17.8605 27.8779 17.8605C27.2155 17.8605 26.6785 17.3235 26.6785 16.6611C26.6785 15.9986 27.2155 15.4617 27.8779 15.4617C28.5404 15.4617 29.0775 15.9986 29.0775 16.6611Z" fill="white"/>
</g>
<defs>
<clipPath id="clip0_1441_31617">
<rect width="20" height="20" fill="white" transform="translate(12.5 12)"/>
</clipPath>
</defs>
</svg>
