<svg width="45" height="44" viewBox="0 0 45 44" fill="none" xmlns="http://www.w3.org/2000/svg">
<rect x="0.5" width="44" height="44" rx="5" fill="white" fill-opacity="0.1"/>
<g clip-path="url(#clip0_1441_31612)">
<path d="M32.4951 32.0001V31.9993H32.5001V24.6643C32.5001 21.0759 31.7276 18.3118 27.5326 18.3118C25.5159 18.3118 24.1626 19.4184 23.6101 20.4676H23.5517V18.6468H19.5742V31.9993H23.7159V25.3876C23.7159 23.6468 24.0459 21.9634 26.2017 21.9634C28.3259 21.9634 28.3576 23.9501 28.3576 25.4993V32.0001H32.4951Z" fill="white"/>
<path d="M12.8301 18.6475H16.9767V32H12.8301V18.6475Z" fill="white"/>
<path d="M14.9017 12C13.5758 12 12.5 13.0758 12.5 14.4017C12.5 15.7275 13.5758 16.8258 14.9017 16.8258C16.2275 16.8258 17.3033 15.7275 17.3033 14.4017C17.3025 13.0758 16.2267 12 14.9017 12V12Z" fill="white"/>
</g>
<defs>
<clipPath id="clip0_1441_31612">
<rect width="20" height="20" fill="white" transform="translate(12.5 12)"/>
</clipPath>
</defs>
</svg>
