<svg width="201" height="201" viewBox="0 0 201 201" fill="none" xmlns="http://www.w3.org/2000/svg">
<mask id="mask0_1359_72912" style="mask-type:luminance" maskUnits="userSpaceOnUse" x="0" y="0" width="201" height="201">
<path d="M200.223 0.57959H0.222656V200.58H200.223V0.57959Z" fill="white"/>
</mask>
<g mask="url(#mask0_1359_72912)">
<path d="M145.118 130.466C145.118 138.206 139.598 144.479 132.792 144.479H68.6985C61.8916 144.479 56.373 138.206 56.373 130.466V84.8717C56.373 78.3545 87.5758 60.8935 97.4386 55.5371C99.29 54.5315 101.426 54.4897 103.183 55.4277C112.97 60.6515 145.118 78.3095 145.118 84.8717V130.466Z" fill="#3C9785"/>
<path d="M56.3333 86.0223C60.0402 81.4225 65.7191 80.9949 65.7191 80.9949H135.772C135.772 80.9949 141.455 81.4225 145.162 86.0223L100.746 113.388L56.3333 86.0223Z" fill="#3D9885"/>
<path d="M56.3333 84.7673C60.0402 89.3671 65.7191 89.7947 65.7191 89.7947H135.772C135.772 89.7947 141.455 89.3671 145.162 84.7673L100.746 57.4019L56.3333 84.7673Z" fill="#3D9885"/>
<path d="M129.787 68.6929H117.864H83.6992H71.776C68.9938 68.6929 66.668 70.2766 66.668 72.2852V83.5176V139.773C66.668 141.781 68.9592 143.389 71.7412 143.389L71.776 143.367H129.787L129.787 143.389C132.396 143.389 134.536 141.968 134.794 140.134C134.811 140.012 134.814 139.899 134.814 139.773V83.5176V72.2852C134.814 70.2766 132.569 68.6929 129.787 68.6929Z" fill="#FEFEFE"/>
<path d="M145.116 85.939V131.179C144.858 134.909 143.72 137.607 142.253 139.553C138.788 144.153 133.481 144.58 133.481 144.58L100.746 112.188L145.116 85.939Z" fill="#DED8D7"/>
<path d="M100.745 112.188L68.0101 144.58C68.0101 144.58 62.6993 144.153 59.2347 139.553C57.7679 137.607 56.6327 134.909 56.3711 131.179V85.939L100.745 112.188Z" fill="#DED8D7"/>
<path d="M142.254 139.553C138.79 144.153 133.482 144.58 133.482 144.58H68.0117C68.0117 144.58 62.7009 144.153 59.2363 139.553L100.747 112.188L142.254 139.553Z" fill="#CBC6BF"/>
</g>
</svg>
