<svg width="45" height="44" viewBox="0 0 45 44" fill="none" xmlns="http://www.w3.org/2000/svg">
<rect x="0.5" width="44" height="44" rx="5" fill="white" fill-opacity="0.1"/>
<g clip-path="url(#clip0_1441_31609)">
<path d="M32.5 15.7988C31.7563 16.125 30.9637 16.3412 30.1375 16.4462C30.9875 15.9388 31.6363 15.1412 31.9412 14.18C31.1488 14.6525 30.2738 14.9863 29.3412 15.1725C28.5887 14.3713 27.5162 13.875 26.3462 13.875C24.0763 13.875 22.2487 15.7175 22.2487 17.9763C22.2487 18.3012 22.2762 18.6137 22.3438 18.9112C18.935 18.745 15.9188 17.1113 13.8925 14.6225C13.5387 15.2363 13.3313 15.9388 13.3313 16.695C13.3313 18.115 14.0625 19.3737 15.1525 20.1025C14.4937 20.09 13.8475 19.8988 13.3 19.5975C13.3 19.61 13.3 19.6262 13.3 19.6425C13.3 21.635 14.7212 23.29 16.585 23.6712C16.2512 23.7625 15.8875 23.8062 15.51 23.8062C15.2475 23.8062 14.9825 23.7913 14.7337 23.7362C15.265 25.36 16.7725 26.5538 18.565 26.5925C17.17 27.6838 15.3988 28.3412 13.4813 28.3412C13.145 28.3412 12.8225 28.3263 12.5 28.285C14.3162 29.4563 16.4688 30.125 18.79 30.125C26.335 30.125 30.46 23.875 30.46 18.4575C30.46 18.2762 30.4538 18.1013 30.445 17.9275C31.2588 17.35 31.9425 16.6288 32.5 15.7988Z" fill="white"/>
</g>
<defs>
<clipPath id="clip0_1441_31609">
<rect width="20" height="20" fill="white" transform="translate(12.5 12)"/>
</clipPath>
</defs>
</svg>
