<svg width="24" height="29" viewBox="0 0 24 29" fill="none" xmlns="http://www.w3.org/2000/svg">
<path d="M23.424 22.5268C23.0157 23.4778 22.5114 24.3848 21.919 25.2335C21.1269 26.3622 20.4788 27.1433 19.9795 27.5773C19.2054 28.289 18.3753 28.6541 17.4869 28.6746C16.8493 28.6746 16.0805 28.4931 15.185 28.1251C14.2867 27.7587 13.4613 27.5767 12.7065 27.5767C11.9149 27.5767 11.0661 27.7587 10.1579 28.1251C9.24846 28.4931 8.51579 28.6851 7.95579 28.7037C7.10412 28.7405 6.25479 28.3654 5.40662 27.5773C4.86587 27.1048 4.18979 26.2963 3.37896 25.1506C2.50921 23.9268 1.79404 22.5081 1.23404 20.89C0.634374 19.1429 0.333374 17.4506 0.333374 15.8126C0.333374 13.9361 0.738791 12.3179 1.55079 10.9616C2.18954 9.87197 3.03829 9.0133 4.10112 8.38214C5.14382 7.75817 6.33356 7.42239 7.54862 7.40914C8.22529 7.40914 9.11254 7.61855 10.2156 8.0298C11.3152 8.44222 12.021 8.65164 12.3308 8.65164C12.5618 8.65164 13.3464 8.40664 14.6758 7.91897C15.9335 7.4663 16.9945 7.27905 17.8637 7.35314C20.2198 7.5433 21.9896 8.47197 23.1662 10.145C21.0598 11.4213 20.0174 13.2092 20.0384 15.5029C20.057 17.2896 20.7051 18.7766 21.9791 19.9566C22.5566 20.505 23.2012 20.9285 23.9181 21.2289C23.7678 21.6669 23.603 22.0997 23.424 22.5268ZM18.0212 1.26664C18.0212 2.66664 17.5096 3.97447 16.49 5.1843C15.2591 6.62339 13.771 7.45464 12.157 7.32339C12.1353 7.14727 12.1244 6.97 12.1243 6.79255C12.1243 5.44855 12.7094 4.01005 13.7489 2.83347C14.268 2.23789 14.9272 1.74264 15.7275 1.34772C16.5267 0.958638 17.2815 0.743388 17.992 0.706055C18.0125 0.893305 18.0212 1.08055 18.0212 1.26605V1.26664Z" fill="white"/>
</svg>
