<svg width="150" height="113" viewBox="0 0 150 113" fill="none" xmlns="http://www.w3.org/2000/svg">
<mask id="mask0_1571_9952" style="mask-type:alpha" maskUnits="userSpaceOnUse" x="0" y="0" width="150" height="113">
<rect x="0.84082" y="0.745605" width="148" height="111" rx="13.4949" fill="white" stroke="#E0E0E0"/>
</mask>
<g mask="url(#mask0_1571_9952)">
<path fill-rule="evenodd" clip-rule="evenodd" d="M97.0292 76.6746L91.666 118.665L94.4778 118.628L99.841 77.0677L97.0292 76.6746Z" fill="#D2D2D2"/>
<path fill-rule="evenodd" clip-rule="evenodd" d="M99.3087 76.6746L104.672 118.665L101.86 118.628L96.4969 77.0677L99.3087 76.6746Z" fill="#D2D2D2"/>
<path fill-rule="evenodd" clip-rule="evenodd" d="M115.658 76.6746L121.021 118.665L118.21 118.628L112.847 77.0677L115.658 76.6746Z" fill="#D2D2D2"/>
<path fill-rule="evenodd" clip-rule="evenodd" d="M79.3312 83.275C76.9084 83.275 74.9443 81.3109 74.9443 78.8881C74.9443 76.4653 76.9084 74.5013 79.3312 74.5013H94.9637C98.8399 74.5013 102.081 71.5537 102.447 67.6948L104.871 42.1578C105.237 38.2989 108.477 35.3513 112.354 35.3513H118.845C123.225 35.3513 126.678 39.0818 126.339 43.4491L123.789 76.3393C123.485 80.2536 120.221 83.275 116.295 83.275H79.3312Z" fill="#D2D2D2"/>
<path fill-rule="evenodd" clip-rule="evenodd" d="M74.9452 78.8511C74.9563 78.8512 74.9674 78.8513 74.9785 78.8513H111.837C115.762 78.8513 119.027 75.8308 119.331 71.9172L121.878 39.1611C121.97 37.9861 121.786 36.8572 121.385 35.8346C120.56 35.5225 119.664 35.3513 118.725 35.3513H112.286C108.411 35.3513 105.171 38.2978 104.804 42.1558L102.383 67.5855C102.016 71.4436 98.7755 74.39 94.9001 74.39H79.3198C76.9033 74.39 74.9443 76.349 74.9443 78.7655C74.9443 78.7941 74.9446 78.8226 74.9452 78.8511Z" fill="#B2B0B0"/>
<path fill-rule="evenodd" clip-rule="evenodd" d="M78.6474 105.154C78.6474 105.154 80.9817 110.687 79.0681 112.154C77.1516 113.621 73.4243 117.249 73.4243 117.249L85.501 114.66L82.5198 104.508L78.6474 105.154Z" fill="url(#paint0_linear_1571_9952)"/>
<path fill-rule="evenodd" clip-rule="evenodd" d="M79.3411 108.798C79.3411 108.798 79.6378 111.395 78.7811 112.281C77.9247 113.166 73.2879 116.539 72.9247 117.179C72.5615 117.82 73.211 118.526 73.211 118.526C73.211 118.526 78.2194 118.956 80.4719 117.603C82.0982 116.626 84.5234 114.871 84.5234 114.871L85.1658 116.596L86.9866 116.523C86.9866 116.523 87.2278 114.397 86.7957 113.377C86.3636 112.357 84.1384 107.168 84.1384 107.168C84.1384 107.168 83.2819 107.929 82.3717 108.312C81.4615 108.695 80.3214 109.744 80.3214 109.744L79.3411 108.798Z" fill="#323740"/>
<path fill-rule="evenodd" clip-rule="evenodd" d="M98.851 64.1291C94.7907 64.3081 72.1922 69.2427 68.0864 70.0811C63.9806 70.9195 60.5095 75.456 63.6403 80.7089C67.1567 86.6057 76.2298 103.352 78.4326 107.127C79.523 108.996 85.0235 107.948 83.7314 104.812C81.3228 98.9658 80.2043 84.2791 74.0635 78.9241C74.0635 78.9241 94.7149 82.4725 103.636 78.4079C110.119 75.4533 108.652 63.6964 98.851 64.1291Z" fill="#42474F"/>
<path fill-rule="evenodd" clip-rule="evenodd" d="M70.5272 38.2281C70.5272 38.2281 70.5731 34.9664 69.4174 33.2618C68.2618 31.5572 68.2159 29.7466 67.3413 29.8059C66.4667 29.8651 67.3327 34.0737 67.3327 34.0737C67.3327 34.0737 66.2229 33.6551 65.4257 33.1257C64.6285 32.5963 62.2112 29.9862 61.6462 30.4487C60.6885 31.2368 62.2312 35.6821 63.0714 36.5709C63.9145 37.4599 68.5199 40.3833 68.5199 40.3833L79.8001 51.7709L81.918 45.9859L70.5272 38.2281Z" fill="#FFE0D1"/>
<path fill-rule="evenodd" clip-rule="evenodd" d="M95.4788 37.1522C93.59 41.4772 90.1317 49.4224 88.7059 51.7928C86.9192 54.7614 84.1018 56.0693 80.803 53.8667C79.9272 53.282 77.2592 51.048 77.2592 51.048L80.4878 44.0331L82.5819 45.7394C82.5819 45.7394 86.1265 36.7686 88.978 31.5719C91.4475 27.0759 98.3538 30.5771 95.4788 37.1522Z" fill="#FFB66F"/>
<path fill-rule="evenodd" clip-rule="evenodd" d="M82.5449 45.7441C82.5449 45.7441 81.5929 48.9321 81.3703 48.7475C81.1478 48.5629 81.5404 44.9109 81.5404 44.9109L82.5449 45.7441Z" fill="black" fill-opacity="0.159856"/>
<path fill-rule="evenodd" clip-rule="evenodd" d="M81.29 44.4214L78.5901 53.3484L75.7225 51.1263L79.7137 43.2124L81.29 44.4214Z" fill="#FFEDC2"/>
<path fill-rule="evenodd" clip-rule="evenodd" d="M98.9302 6.9771C98.9302 6.9771 100.353 4.66025 102.601 4.82876C104.849 4.99728 107.569 8.38089 107.418 12.1371C107.271 15.8929 108.106 16.4817 109.714 18.65C114.034 24.4837 107.32 31.3403 107.32 31.3403L98.419 31.3634L98.1184 14.9819L98.9302 6.9771Z" fill="#42474F"/>
<path fill-rule="evenodd" clip-rule="evenodd" d="M102.458 8.32257C108.514 12.4054 105.027 17.168 104.417 18.2857C103.231 26.4112 105.636 26.8228 109.262 28.6294L107.994 30.8655L102.793 29.9085L98.4543 8.742L102.458 8.32257Z" fill="black" fill-opacity="0.199355"/>
<path fill-rule="evenodd" clip-rule="evenodd" d="M105.297 28.0898C105.297 28.0898 102.204 27.4761 102.112 23.1924C102.02 18.9087 102.53 17.4464 102.53 17.4464L96.6968 17.3425C96.6968 17.3425 96.6333 22.1167 96.6323 23.8435C96.6299 28.0421 93.3565 28.5292 93.3565 28.5292C93.3565 28.5292 94.037 31.8505 99.3222 32.1439C103.449 32.3733 105.297 28.0898 105.297 28.0898Z" fill="#F9C7B0"/>
<path fill-rule="evenodd" clip-rule="evenodd" d="M102.33 8.17179C102.548 5.69927 98.4263 5.10774 97.6585 7.01886C97.6585 7.01886 97.4448 8.72092 98.7851 9.38181C100.598 10.2721 102.33 8.17179 102.33 8.17179Z" fill="#FB9934"/>
<path fill-rule="evenodd" clip-rule="evenodd" d="M102.865 14.5381C105.389 13.8999 105.756 17.6666 103.111 18.2236C103.111 18.2236 102.686 23.7755 97.3544 24.9088C93.0245 25.8291 91.4483 19.7985 91.1508 18.5919C90.8332 17.3055 89.9232 13.0507 89.9232 13.0507L102.101 10.4565L102.865 14.5381Z" fill="#FFE0D1"/>
<path fill-rule="evenodd" clip-rule="evenodd" d="M102.011 17.0903C101.553 17.0655 100.931 14.715 100.931 14.715C99.58 14.7365 99.2903 14.496 97.9731 13.117C93.8159 14.958 90.9206 15.8657 91.2073 19.0932C91.2073 19.0932 86.3948 12.5232 91.5724 8.7239C96.1271 5.38535 101.894 6.38657 103.664 10.1502C104.915 12.8064 104.598 15.0198 104.598 15.0198C104.598 15.0198 103.718 14.1226 102.69 14.6119C101.662 15.1012 102.469 17.1152 102.011 17.0903Z" fill="#42474F"/>
<path d="M97.6367 21.1797C97.6367 21.1797 96.5925 22.5112 94.9104 21.8298" stroke="#F77B7B" stroke-width="1.01687" stroke-linecap="round"/>
<path d="M97.0594 22.5873C96.7025 22.8513 96.3249 22.9453 95.9472 22.838" stroke="#F49494" stroke-width="0.677916" stroke-linecap="round"/>
<path d="M103.026 16.5715C102.874 15.987 102.957 15.4796 103.547 15.2559" stroke="#F77B7B" stroke-width="0.677916" stroke-linecap="round"/>
<path fill-rule="evenodd" clip-rule="evenodd" d="M94.5765 27.957C94.5053 27.9536 92.011 29.0341 91.7237 29.4507C89.8526 32.1644 86.4171 41.7158 86.2402 43.7878C86.0409 46.1779 89.5262 49.9852 89.5689 53.4452C89.6069 56.9056 88.0781 67.3247 88.6712 68.298C89.2595 69.2713 93.1263 73.8945 93.9329 73.9133C94.7442 73.9322 95.3498 71.5049 96.5787 71.5576C97.8028 71.6104 100.355 74.8286 101.456 74.8055C102.552 74.782 113.911 67.6688 113.042 65.6421C112.169 63.6154 108.118 58.5788 108.53 55.8174C108.938 53.0563 112.198 42.864 113.375 39.3951C114.546 35.9261 115.491 33.1628 113.303 31.6701C111.116 30.1774 103.999 27.447 103.999 27.447L97.6272 30.9706C97.6272 30.9706 94.9464 27.9746 94.5765 27.957Z" fill="#FF9F43"/>
<path fill-rule="evenodd" clip-rule="evenodd" d="M96.8424 30.8728C94.9313 37.1554 92.3085 43.3459 91.258 49.237L94.3135 47.6096L97.1317 49.7206C96.9328 43.5959 97.973 37.1649 98.4512 30.8728H96.8424Z" fill="#FFF6E1"/>
<path fill-rule="evenodd" clip-rule="evenodd" d="M108.004 35.6966L108.077 36.2047C108.933 42.5138 107.92 50.1696 106.164 51.3376C104.371 52.5299 97.3953 51.3598 97.3953 52.3041C97.3953 53.2483 107.036 61.9018 105.453 66.0386C104.583 68.313 104.875 70.3358 106.327 72.1069L106.749 71.8266C110.042 69.6187 113.538 66.8 113.042 65.642C112.169 63.6153 108.117 58.5787 108.53 55.8172C108.922 53.1667 111.941 43.6674 113.223 39.8426L113.632 38.6299C114.106 37.2081 114.501 35.9201 114.597 34.8088L114.302 34.6199C109.593 31.636 107.494 31.995 108.004 35.6966Z" fill="black" fill-opacity="0.159856"/>
<path fill-rule="evenodd" clip-rule="evenodd" d="M105.175 27.8919L103.999 27.447L97.4869 30.7883C97.4869 30.7883 98.7113 33.8684 100.88 32.3346C102.738 31.023 101.954 29.8688 103.411 29.2734C104.863 28.6781 105.175 27.8919 105.175 27.8919Z" fill="#FFF6E1"/>
<path fill-rule="evenodd" clip-rule="evenodd" d="M97.4873 30.7883C97.0153 31.8248 96.0556 32.4304 95.5594 32.2421C94.7406 31.9311 95.0922 30.6922 94.7695 30.0663C94.5383 29.6222 94.389 29.5552 94.1867 29.1383C93.9988 28.7558 93.991 28.2968 94.0392 28.1701L94.6798 27.8823C94.6798 27.8823 95.5602 28.703 95.9697 29.1383C96.4802 29.6807 97.4873 30.7883 97.4873 30.7883Z" fill="#FFF6E1"/>
<path fill-rule="evenodd" clip-rule="evenodd" d="M104.657 47.4287C104.657 47.4287 100.823 44.0788 99.6494 43.69C98.4758 43.3013 91.6022 42.8343 91.6457 43.7127C91.695 44.6538 95.3868 44.5997 95.7693 45.0627C96.1518 45.5255 96.2387 48.69 97.6847 49.0453C99.1278 49.4006 103.454 50.0131 103.454 50.0131L113.803 56.175L114.245 50.5449L104.657 47.4287Z" fill="#FFE0D1"/>
<path fill-rule="evenodd" clip-rule="evenodd" d="M114.856 33.2449C118.895 38.8729 122.344 47.4457 123.668 50.788C124.991 54.1303 123.656 59.1715 117.835 58.1818C116.852 58.0148 114.648 57.3446 114.648 57.3446L113.257 49.6037L115.051 50.3474C115.051 50.3474 109.266 40.2236 107.853 37.5097C105.494 32.9773 111.298 28.2861 114.856 33.2449Z" fill="#FFB66F"/>
<path fill-rule="evenodd" clip-rule="evenodd" d="M115.051 50.3474C115.051 50.3474 117.989 51.7644 117.62 51.1411C117.25 50.5178 113.943 48.3787 113.943 48.3787L115.051 50.3474Z" fill="black" fill-opacity="0.159856"/>
<path fill-rule="evenodd" clip-rule="evenodd" d="M114.771 49.9897L115.731 58.3601L111.932 57.1676L112.505 48.9646L114.771 49.9897Z" fill="#FFEDC2"/>
<path fill-rule="evenodd" clip-rule="evenodd" d="M64.5444 105.341C64.5444 105.341 64.6147 110.82 60.0422 112.868C55.4726 114.916 52.2169 114.793 52.6312 116.377C53.0456 117.96 64.9399 117.896 66.0507 116.658C66.9974 115.604 69.0562 105.794 69.623 106.544L64.5444 105.341Z" fill="url(#paint1_linear_1571_9952)"/>
<path fill-rule="evenodd" clip-rule="evenodd" d="M68.8096 109.66C68.8096 109.66 67.8486 111.986 67.764 113.397C67.6791 114.807 65.4915 118.816 65.4915 118.816L63.7634 119.03L63.6054 117.577C63.6054 117.577 61.1041 118.629 59.5348 118.797C57.9659 118.966 52.5837 118.334 51.5136 117.456C50.443 116.578 50.9839 115.341 54.0732 114.588C57.1622 113.835 61.9618 111.633 62.8751 110.04C63.7884 108.446 63.7939 108.487 63.7939 108.487L63.7757 111.143C63.7757 111.143 64.5663 109.745 65.4994 109.558C66.4326 109.372 68.8096 109.66 68.8096 109.66Z" fill="#323740"/>
<path fill-rule="evenodd" clip-rule="evenodd" d="M111.128 62.4355C111.128 62.4355 118.811 73.8646 109.625 78.9695C101.781 83.3291 77.586 78.2227 77.586 78.2227C77.586 78.2227 78.0152 81.6339 77.586 84.6763C76.4652 92.6223 71.1346 105.861 70.0067 107.524C68.4471 109.825 63.696 108.09 63.6065 106.174C63.517 104.259 67.1881 79.796 67.7463 75.1311C68.3017 70.4659 70.0551 69.7883 75.1763 68.513C76.3529 68.22 90.266 64.8064 91.5406 64.9059C102.492 65.7608 111.128 62.4355 111.128 62.4355Z" fill="#42474F"/>
<path opacity="0.439941" fill-rule="evenodd" clip-rule="evenodd" d="M105.547 77.6993C97.6044 78.5779 76.5769 76.7668 75.7324 77.5898C74.9261 78.3755 75.0606 92.0459 73.2518 99.9577C75.0335 95.1637 76.9622 89.0998 77.5862 84.6762C78.0153 81.6338 77.5862 78.2226 77.5862 78.2226L78.4078 78.3845C82.6946 79.2066 102.568 82.7363 109.625 78.9695C113.764 76.7601 115.366 73.3394 114.429 68.7073C113.301 74.1717 110.34 77.1691 105.547 77.6993Z" fill="white" fill-opacity="0.192499"/>
<ellipse cx="1.33407" cy="2.41783" rx="1.33407" ry="2.41783" transform="matrix(-0.97437 0.224951 0.224951 0.97437 65.1152 73.1013)" fill="white" fill-opacity="0.192499"/>
<ellipse cx="1.77818" cy="2.63849" rx="1.77818" ry="2.63849" transform="matrix(-0.961262 -0.275637 -0.275637 0.961262 73.0254 72.1736)" fill="white" fill-opacity="0.192499"/>
<path d="M51.1222 32.2325C50.559 31.1879 51.2343 29.9056 52.4143 29.7789L63.5894 28.5797C64.2518 28.5086 64.893 28.8379 65.2212 29.4175L72.6153 42.4754C73.1851 43.4816 72.5848 44.7485 71.4452 44.9447L60.3038 46.8627C59.5966 46.9844 58.8906 46.6409 58.5501 46.0092L51.1222 32.2325Z" fill="#A74E8E"/>
<path fill-rule="evenodd" clip-rule="evenodd" d="M51.6447 32.1331C51.1061 31.1201 51.7256 29.8781 52.8589 29.699L63.7517 27.9776C64.4557 27.8664 65.1527 28.214 65.4873 28.8433L72.5884 42.1985C73.127 43.2116 72.5075 44.4536 71.3743 44.6326L60.4814 46.3541C59.7774 46.4653 59.0804 46.1176 58.7458 45.4883L51.6447 32.1331Z" fill="url(#paint2_linear_1571_9952)"/>
<path d="M51.7168 30.8071L64.6062 28.6108L72.5219 43.4981L59.6943 45.451L51.7168 30.8071Z" fill="white"/>
<path d="M55.1236 29.1678C54.927 28.834 55.1338 28.4076 55.5177 28.3553L60.0028 27.7445C60.4359 27.6855 60.8621 27.8922 61.0839 28.2689L61.7053 29.3244C61.9019 29.6582 61.695 30.0846 61.3111 30.1369L56.826 30.7477C56.3929 30.8067 55.9667 30.6 55.745 30.2233L55.1236 29.1678Z" fill="#A74E8E"/>
<path opacity="0.24" fill-rule="evenodd" clip-rule="evenodd" d="M61.7729 32.9611C61.9445 32.8698 62.1575 32.9347 62.2486 33.106C62.3332 33.2651 62.2829 33.46 62.1378 33.5601L62.1027 33.5814L56.3662 34.5478C56.1946 34.6391 55.9816 34.5742 55.8905 34.4029C55.8059 34.2439 55.8562 34.049 56.0013 33.9489L56.0364 33.9275L61.7729 32.9611Z" fill="#A74E8E"/>
<path opacity="0.24" fill-rule="evenodd" clip-rule="evenodd" d="M63.4223 36.0627C63.5939 35.9714 63.8069 36.0363 63.898 36.2076C63.9826 36.3666 63.9323 36.5615 63.7872 36.6616L63.7521 36.683L58.0157 37.6494C57.844 37.7406 57.631 37.6758 57.5399 37.5045C57.4553 37.3454 57.5056 37.1505 57.6507 37.0504L57.6858 37.0291L63.4223 36.0627Z" fill="#A74E8E"/>
<path opacity="0.24" fill-rule="evenodd" clip-rule="evenodd" d="M65.0707 39.164C65.2424 39.0727 65.4554 39.1376 65.5465 39.3089C65.631 39.4679 65.5807 39.6628 65.4357 39.7629L65.4005 39.7843L59.6641 40.7507C59.4924 40.842 59.2794 40.7771 59.1883 40.6058C59.1038 40.4467 59.1541 40.2519 59.2991 40.1517L59.3343 40.1304L65.0707 39.164Z" fill="#A74E8E"/>
<path fill-rule="evenodd" clip-rule="evenodd" d="M50.5459 64.635H59.4279V119.802H50.5459V64.635Z" fill="#D2D2D2"/>
<path fill-rule="evenodd" clip-rule="evenodd" d="M50.5459 62.4678H55.8751V119.802H50.5459V62.4678Z" fill="#EBEBEB"/>
<path fill-rule="evenodd" clip-rule="evenodd" d="M10.1367 64.635H54.1024V81.1812H19.0187V119.802H10.1367V64.635Z" fill="#D2D2D2"/>
<path fill-rule="evenodd" clip-rule="evenodd" d="M10.1367 64.635H15.4659V119.802H10.1367V64.635Z" fill="#EBEBEB"/>
<path fill-rule="evenodd" clip-rule="evenodd" d="M120.085 64.635H128.967V119.802H120.085V64.635Z" fill="#C5C5C5"/>
<path fill-rule="evenodd" clip-rule="evenodd" d="M79.6758 64.635H123.641V85.1168H88.5577V119.802H79.6758V64.635Z" fill="#D2D2D2"/>
<path fill-rule="evenodd" clip-rule="evenodd" d="M17.2393 62.4678L84.9536 62.4678V85.0766H17.2393V62.4678Z" fill="#EBEBEB"/>
<path fill-rule="evenodd" clip-rule="evenodd" d="M78.3438 64.635H83.6729V85.0765H78.3438V64.635Z" fill="#C3C3C3"/>
<path fill-rule="evenodd" clip-rule="evenodd" d="M79.6758 64.635H85.005V119.802H79.6758V64.635Z" fill="#EBEBEB"/>
<path fill-rule="evenodd" clip-rule="evenodd" d="M81.4736 65.7187C81.4736 63.9233 82.9291 62.4678 84.7246 62.4678L130.605 62.4678C132.401 62.4678 133.856 63.9233 133.856 65.7187C133.856 67.5142 132.401 68.9697 130.605 68.9697H84.7246C82.9291 68.9697 81.4736 67.5142 81.4736 65.7187Z" fill="#C5C5C5"/>
<path fill-rule="evenodd" clip-rule="evenodd" d="M11.9609 63.7681H79.6753V70.27H11.9609V63.7681Z" fill="#D2D2D2"/>
<path fill-rule="evenodd" clip-rule="evenodd" d="M5.38867 65.7187C5.38867 63.9233 6.84418 62.4678 8.63963 62.4678H86.1949C87.9903 62.4678 89.4459 63.9233 89.4459 65.7187C89.4459 67.5142 87.9903 68.9697 86.1949 68.9697H8.63963C6.84418 68.9697 5.38867 67.5142 5.38867 65.7187Z" fill="#EBEBEB"/>
<path fill-rule="evenodd" clip-rule="evenodd" d="M96.3274 56.6758H98.5456C98.974 56.6758 99.3213 57.0077 99.3213 57.4173V58.4329C99.3213 59.4033 98.4983 60.19 97.4831 60.19H96.3274C96.1438 60.19 95.9949 60.0477 95.9949 59.8722C95.9949 59.6967 96.1438 59.5544 96.3274 59.5544H97.4831C98.1311 59.5544 98.6564 59.0523 98.6564 58.4329V57.4173C98.6564 57.3588 98.6068 57.3113 98.5456 57.3113H96.3274C96.1438 57.3113 95.9949 57.1691 95.9949 56.9936C95.9949 56.8181 96.1438 56.6758 96.3274 56.6758Z" fill="#A74E8E"/>
<path fill-rule="evenodd" clip-rule="evenodd" d="M88.961 55.8674C88.4714 55.8674 88.0745 56.2468 88.0745 56.7148V58.8333C88.0745 60.3586 89.279 61.615 90.8284 61.7807L90.8288 62.2229H94.7093L94.7095 61.771C96.2199 61.5711 97.3828 60.332 97.3828 58.8333V56.7148C97.3828 56.2468 96.9859 55.8674 96.4963 55.8674H88.961Z" fill="#A74E8E"/>
<path fill-rule="evenodd" clip-rule="evenodd" d="M97.5479 62.0178C97.5479 61.8972 97.45 61.7993 97.3293 61.7993H88.4581C88.3374 61.7993 88.2395 61.8972 88.2395 62.0179C88.2395 62.1332 88.3292 62.2287 88.4443 62.236L91.717 62.444H94.0441L97.3431 62.2359C97.4582 62.2287 97.5479 62.1332 97.5479 62.0178Z" fill="#2C8AA0"/>
<path fill-rule="evenodd" clip-rule="evenodd" d="M37.9189 61.8263C37.9189 61.4922 38.1897 61.2214 38.5238 61.2214H81.0958C81.4299 61.2214 81.7007 61.4922 81.7007 61.8263C81.7007 62.1603 81.4299 62.4311 81.0958 62.4311H38.5238C38.1897 62.4311 37.9189 62.1603 37.9189 61.8263Z" fill="#2C8AA0"/>
<path fill-rule="evenodd" clip-rule="evenodd" d="M66.7598 61.8263C66.7598 61.4922 67.0306 61.2214 67.3646 61.2214H81.096C81.43 61.2214 81.7008 61.4922 81.7008 61.8263C81.7008 62.1603 81.43 62.4311 81.096 62.4311H67.3646C67.0306 62.4311 66.7598 62.1603 66.7598 61.8263Z" fill="#A74E8E"/>
<path fill-rule="evenodd" clip-rule="evenodd" d="M35.9796 45.7106C35.7916 44.251 36.9284 42.9583 38.4001 42.9583H63.2109C64.4382 42.9583 65.4746 43.8697 65.6314 45.0869L67.3622 58.5213C67.5503 59.9809 66.4134 61.2736 64.9417 61.2736H40.1309C38.9036 61.2736 37.8673 60.3622 37.7104 59.145L35.9796 45.7106Z" fill="#A74E8E"/>
<path fill-rule="evenodd" clip-rule="evenodd" d="M35.9796 45.7106C35.7916 44.251 36.9284 42.9583 38.4001 42.9583H62.267C63.4943 42.9583 64.5307 43.8697 64.6875 45.0869L66.4183 58.5213C66.6064 59.9809 65.4695 61.2736 63.9979 61.2736H40.1309C38.9036 61.2736 37.8673 60.3622 37.7104 59.145L35.9796 45.7106Z" fill="url(#paint3_linear_1571_9952)"/>
<ellipse cx="1.87432" cy="2.04195" rx="1.87432" ry="2.04195" transform="matrix(0.798636 -0.601814 0.601816 0.798635 47.9883 51.9045)" fill="white"/>
<path fill-rule="evenodd" clip-rule="evenodd" d="M129.169 97.8252C131.867 91.8302 134.317 85.6733 136.561 79.3804C131.393 84.1653 127.375 89.9947 127.947 97.8252H129.169Z" fill="#57E295"/>
<path fill-rule="evenodd" clip-rule="evenodd" d="M127.731 98.4512C127.092 88.229 127.363 78.7355 132.714 73.3145C131.976 84.5379 130.595 92.4443 128.847 98.4512H127.731Z" fill="#28C76F"/>
<path fill-rule="evenodd" clip-rule="evenodd" d="M127.486 97.3867C124.496 90.2434 121.492 88.1958 119.009 80.8633C127.136 85.0033 127.645 88.4219 129.24 97.3867H127.486Z" fill="#57E295"/>
<path fill-rule="evenodd" clip-rule="evenodd" d="M125.877 97.3867L120.514 90.2434C123.104 90.9688 127.433 92.1433 127.433 97.3867H125.877Z" fill="#28C76F"/>
<path fill-rule="evenodd" clip-rule="evenodd" d="M130.893 97.3866H132.682C133.819 95.0544 135.421 93.4488 139.297 95.3951C136.756 91.593 131.543 90.4423 130.893 97.3866Z" fill="#57E295"/>
<path fill-rule="evenodd" clip-rule="evenodd" d="M129.247 97.3867H130.735C133.465 93.5504 134.639 91.8789 137.465 88.6028C133.743 89.9905 129.922 91.8789 129.247 97.3867Z" fill="#28C76F"/>
<path fill-rule="evenodd" clip-rule="evenodd" d="M125.606 96.5459H133.004C133.286 96.5459 133.514 96.7702 133.514 97.0469V98.4247C135.385 100.742 136.321 103.059 136.321 105.376C136.321 107.622 135.522 109.868 133.924 112.113C133.829 112.247 133.673 112.327 133.506 112.327H125.104C124.937 112.327 124.781 112.247 124.686 112.113C123.088 109.868 122.289 107.622 122.289 105.376C122.289 103.103 123.19 100.829 124.99 98.5558L125.095 98.4247V97.0469C125.095 96.7702 125.324 96.5459 125.606 96.5459Z" fill="#A74E8E"/>
<mask id="mask1_1571_9952" style="mask-type:luminance" maskUnits="userSpaceOnUse" x="122" y="96" width="15" height="17">
<path fill-rule="evenodd" clip-rule="evenodd" d="M125.606 96.5459H133.004C133.286 96.5459 133.514 96.7702 133.514 97.0469V98.4247C135.385 100.742 136.321 103.059 136.321 105.376C136.321 107.622 135.522 109.868 133.924 112.113C133.829 112.247 133.673 112.327 133.506 112.327H125.104C124.937 112.327 124.781 112.247 124.686 112.113C123.088 109.868 122.289 107.622 122.289 105.376C122.289 103.103 123.19 100.829 124.99 98.5558L125.095 98.4247V97.0469C125.095 96.7702 125.324 96.5459 125.606 96.5459Z" fill="white"/>
</mask>
<g mask="url(#mask1_1571_9952)">
<path fill-rule="evenodd" clip-rule="evenodd" d="M120.503 96.1121H127.136C123.96 103.37 130.225 107.669 127.136 114.9H120.503V96.1121Z" fill="#A74E8E"/>
</g>
</g>
<defs>
<linearGradient id="paint0_linear_1571_9952" x1="87.5907" y1="101.406" x2="86.5581" y2="116.591" gradientUnits="userSpaceOnUse">
<stop stop-color="#FDC6C6"/>
<stop offset="1" stop-color="#FAB2B2"/>
</linearGradient>
<linearGradient id="paint1_linear_1571_9952" x1="72.5694" y1="102.363" x2="71.8924" y2="116.981" gradientUnits="userSpaceOnUse">
<stop stop-color="#FDC6C6"/>
<stop offset="1" stop-color="#FAB2B2"/>
</linearGradient>
<linearGradient id="paint2_linear_1571_9952" x1="43.7512" y1="19.5995" x2="60.5746" y2="51.2396" gradientUnits="userSpaceOnUse">
<stop stop-color="#44B2CB"/>
<stop offset="1" stop-color="#92D8E8"/>
</linearGradient>
<linearGradient id="paint3_linear_1571_9952" x1="33.1693" y1="33.2315" x2="33.1693" y2="61.2736" gradientUnits="userSpaceOnUse">
<stop stop-color="#44B2CB"/>
<stop offset="1" stop-color="#92D8E8"/>
</linearGradient>
</defs>
</svg>
