<svg width="200" height="200" viewBox="0 0 200 200" fill="none" xmlns="http://www.w3.org/2000/svg">
<path d="M95.1412 159.968C144.572 164.97 170.048 152.811 171.569 123.489C173.849 79.5054 135.431 84.2568 124.243 72.6649C113.054 61.073 125.588 77.5465 104.04 53.5253C89.6746 37.511 70.5325 37.4287 46.6141 53.2792C27.3213 68.9814 25.2347 89.5739 40.3537 115.056C55.4727 140.538 73.735 155.508 95.1412 159.968Z" fill="#EEF5D8"/>
<mask id="mask0_1508_32421" style="mask-type:luminance" maskUnits="userSpaceOnUse" x="71" y="49" width="79" height="24">
<path d="M149.357 49.9702H71.5634L71.5186 72.2145H149.311L149.357 49.9702Z" fill="white"/>
</mask>
<g mask="url(#mask0_1508_32421)">
<path d="M72.6769 51.0983C82.6457 51.0983 83.8918 56.9905 83.8918 62.8721V69.2889C83.8918 70.3057 84.665 71.1319 85.6164 71.1319L144.355 70.621C145.307 70.621 146.079 69.7955 146.079 68.7786V61.8609C146.079 55.5506 141.293 50.4341 135.39 50.4341C134.99 50.4341 72.2594 51.0983 72.6769 51.0983Z" fill="#E6E6E6"/>
<path d="M72.6748 52.1771C72.6748 53.1391 73.4567 53.9197 74.4194 53.9197C135.402 53.9197 135.413 53.9191 135.424 53.9197C139.421 53.9266 142.659 57.1926 142.665 61.2244V69.4911H144.389C145.341 69.4911 146.113 68.7123 146.113 67.7521V61.2244C146.139 55.2624 141.369 50.4088 135.459 50.3833H135.39H134.746C134.588 50.3926 134.434 50.4182 134.278 50.435H74.4169C73.4549 50.435 72.6748 51.2151 72.6748 52.1771Z" fill="#E6E6E6"/>
</g>
<mask id="mask1_1508_32421" style="mask-type:luminance" maskUnits="userSpaceOnUse" x="47" y="48" width="97" height="106">
<path d="M143.39 48.8491H47.6875V153.055H143.39V48.8491Z" fill="white"/>
</mask>
<g mask="url(#mask1_1508_32421)">
<path d="M135.392 53.7041V50.4331H73.2813C65.143 50.4456 58.5486 57.0954 58.5361 65.301V150.676C58.5361 151.636 59.3087 152.414 60.2601 152.414H113.44C121.567 152.389 128.145 145.742 128.151 137.547V61.2107V61.1291C128.202 57.1309 131.427 53.7153 135.392 53.7097C135.408 53.7097 135.423 53.7048 135.438 53.7041H135.392Z" fill="white"/>
<path d="M73.2474 50.4333C65.1085 50.4464 58.5134 57.0962 58.501 65.3019V115.284L95.6362 50.3872L73.2474 50.4333Z" fill="#F0F0F0"/>
<path d="M58.5348 85.4611V66.4032C58.5479 58.197 65.1423 51.5477 73.2812 51.5347H135.391M54.1211 150.051C57.8301 150.051 58.5012 146.11 58.5012 143.619C58.5012 123.254 58.5348 108.857 58.5348 103.693M58.8594 91.2836V93.5733" stroke="#E6E6E6" stroke-width="7.2" stroke-miterlimit="10" stroke-linecap="round"/>
<path d="M135.391 50.3813H134.748C129.11 50.7247 124.71 55.4318 124.702 61.1296V61.2923V137.503C124.692 142.697 121.213 147.23 116.232 148.542C115.688 148.684 115.13 148.753 114.573 148.759V148.761H114.53H114.486H50.0137C52.6018 151.046 55.9875 152.434 59.6965 152.437H59.7196H78.3084H113.44C113.819 152.437 114.404 152.437 114.784 152.379C115.454 152.318 116.118 152.206 116.772 152.044C123.449 150.475 128.177 144.477 128.186 137.561V61.1876V61.1066C128.235 57.3589 131.082 54.2567 134.781 53.9178C134.986 53.9066 135.377 53.9078 135.58 53.9178L135.391 50.3813Z" fill="#E6E6E6"/>
</g>
<mask id="mask2_1508_32421" style="mask-type:luminance" maskUnits="userSpaceOnUse" x="43" y="133" width="72" height="20">
<path d="M114.626 133.145H43.9492V152.744H114.626V133.145Z" fill="white"/>
</mask>
<g mask="url(#mask2_1508_32421)">
<path d="M135.389 50.3823H134.746C129.108 50.7263 124.71 55.4328 124.702 61.1306V61.2932V137.504C124.691 142.698 121.213 147.232 116.232 148.543C115.101 148.838 113.913 148.838 112.783 148.543C107.787 147.213 104.31 142.648 104.323 137.435V135.116C104.33 134.156 103.564 133.371 102.612 133.366H91.6842H82.8985H69.354H55.1727H46.6967C45.7452 133.366 44.9727 134.145 44.9727 135.105V137.563C44.9652 145.772 51.5583 152.432 59.696 152.438H59.7178H78.3066H113.437C113.817 152.438 114.403 152.438 114.783 152.38C115.453 152.319 116.118 152.207 116.771 152.045C123.448 150.477 128.176 144.478 128.184 137.563V61.1892V61.1076C128.233 57.3605 131.081 54.2571 134.781 53.9194C134.995 53.9076 135.209 53.9076 135.424 53.9194C139.421 53.9256 142.659 57.1923 142.665 61.2234V69.4907H144.389C145.342 69.4907 146.114 68.7119 146.114 67.7518V61.2234C146.139 55.2614 141.369 50.4085 135.459 50.3823H135.389Z" fill="#E6E6E6"/>
</g>
<mask id="mask3_1508_32421" style="mask-type:luminance" maskUnits="userSpaceOnUse" x="0" y="-1" width="201" height="201">
<path d="M0.334961 -0.0600586H200.335V199.94H0.334961V-0.0600586Z" fill="white"/>
</mask>
<g mask="url(#mask3_1508_32421)">
<mask id="mask4_1508_32421" style="mask-type:luminance" maskUnits="userSpaceOnUse" x="59" y="52" width="70" height="98">
<path d="M128.84 52.7437C124.79 52.7437 72.4537 52.7437 72.4537 52.7437L63.2637 59.2857L59.8369 79.0676V133.429C59.8369 133.429 101.581 133.429 102.828 133.429C104.074 133.429 104.229 134.519 104.229 135.298C104.229 136.077 105.008 149.005 114.198 149.005C123.388 149.005 124.634 140.594 124.634 135.921C124.634 131.248 124.634 61.6222 124.634 60.0645C124.634 58.5069 126.504 53.834 128.84 52.7437Z" fill="white"/>
</mask>
<g mask="url(#mask4_1508_32421)">
<path d="M88.3633 82.6647C89.215 82.1504 90.3221 82.423 90.8384 83.2732L97.3606 94.0139C97.8752 94.8615 97.6052 95.9657 96.7576 96.4807L96.754 96.4829C95.9024 96.9969 94.7951 96.725 94.2785 95.8743L87.7562 85.134C87.2417 84.2861 87.5117 83.1818 88.3593 82.6672L88.3633 82.6647Z" fill="#CAD8E9"/>
<path d="M89.768 84.8996C96.2975 81.3217 98.6947 73.1377 95.1231 66.6196C91.5513 60.1012 83.3631 57.7174 76.8337 61.2952C70.3043 64.873 67.9062 73.0577 71.478 79.5761C75.0496 86.0942 83.2385 88.4775 89.768 84.8996Z" fill="#CAD8E9"/>
<path d="M89.768 84.8996C96.2975 81.3217 98.6947 73.1377 95.1231 66.6196C91.5513 60.1012 83.3631 57.7174 76.8337 61.2952C70.3043 64.873 67.9062 73.0577 71.478 79.5761C75.0496 86.0942 83.2385 88.4775 89.768 84.8996Z" stroke="#CAD8E9" stroke-width="4.32159" stroke-miterlimit="10"/>
</g>
</g>
<path d="M72.4258 118.201H89.2825" stroke="#A9CC3D" stroke-width="7.2" stroke-miterlimit="10" stroke-linecap="round"/>
<path d="M72.4258 102.5H89.2825" stroke="#A9CC3D" stroke-width="7.2" stroke-miterlimit="10" stroke-linecap="round"/>
<path d="M72.4248 86.7983H110.634" stroke="#A9CC3D" stroke-width="7.2" stroke-miterlimit="10" stroke-linecap="round"/>
<path d="M72.4248 69.9761H115.048" stroke="#A9CC3D" stroke-width="7.2" stroke-miterlimit="10" stroke-linecap="round"/>
<path d="M93.6045 78.5612C94.4562 78.0468 95.5633 78.3195 96.0796 79.1697L102.602 89.9104C103.116 90.7579 102.846 91.8622 101.999 92.3772L101.995 92.3794C101.144 92.8934 100.036 92.6215 99.5197 91.7708L92.9974 81.0305C92.4829 80.1826 92.7529 79.0783 93.6005 78.5637L93.6045 78.5612Z" fill="#A9CC3D"/>
<path d="M95.0092 80.7961C101.539 77.2182 103.936 69.0342 100.364 62.5161C96.7925 55.9977 88.6043 53.6139 82.0749 57.1917C75.5456 60.7695 73.1474 68.9542 76.7192 75.4726C80.2909 81.9907 88.4797 84.374 95.0092 80.7961Z" fill="white"/>
<path d="M95.0092 80.7961C101.539 77.2182 103.936 69.0342 100.364 62.5161C96.7925 55.9977 88.6043 53.6139 82.0749 57.1917C75.5456 60.7695 73.1474 68.9542 76.7192 75.4726C80.2909 81.9907 88.4797 84.374 95.0092 80.7961Z" stroke="#A9CC3D" stroke-width="4.32159" stroke-miterlimit="10"/>
</svg>
