<svg width="1911" height="1229" viewBox="0 0 1911 1229" fill="none" xmlns="http://www.w3.org/2000/svg">
<g clip-path="url(#clip0_991_42479)">
<rect width="1928" height="1229" transform="translate(-8.5)" fill="#F8F8F8"/>
<line x1="1376.4" y1="-19.3258" x2="712.282" y2="1381.19" stroke="#FEE0F6"/>
<line x1="1331.22" y1="-40.7491" x2="667.104" y2="1359.77" stroke="#FEE0F6"/>
<line x1="1286.05" y1="-62.172" x2="621.926" y2="1338.34" stroke="#FEE0F6"/>
<line x1="1240.87" y1="-83.5953" x2="576.748" y2="1316.92" stroke="#FEE0F6"/>
<line x1="1195.69" y1="-105.019" x2="531.57" y2="1295.5" stroke="#FEE0F6"/>
<line x1="1150.51" y1="-126.442" x2="486.392" y2="1274.07" stroke="#FEE0F6"/>
<line x1="1105.33" y1="-147.865" x2="441.214" y2="1252.65" stroke="#FEE0F6"/>
<line x1="1060.16" y1="-169.288" x2="396.036" y2="1231.23" stroke="#FEE0F6"/>
<line x1="1014.98" y1="-190.712" x2="350.858" y2="1209.8" stroke="#FEE0F6"/>
<line x1="969.8" y1="-212.135" x2="305.68" y2="1188.38" stroke="#FEE0F6"/>
<line x1="924.622" y1="-233.558" x2="260.502" y2="1166.96" stroke="#FEE0F6"/>
<line x1="879.444" y1="-254.981" x2="215.324" y2="1145.53" stroke="#FEE0F6"/>
<line x1="834.266" y1="-276.404" x2="170.146" y2="1124.11" stroke="#FEE0F6"/>
<line x1="789.088" y1="-297.828" x2="124.969" y2="1102.69" stroke="#FEE0F6"/>
<line x1="743.91" y1="-319.251" x2="79.7905" y2="1081.27" stroke="#FEE0F6"/>
<line x1="698.733" y1="-340.674" x2="34.6128" y2="1059.84" stroke="#FEE0F6"/>
<line x1="653.555" y1="-362.097" x2="-10.5652" y2="1038.42" stroke="#FEE0F6"/>
<line x1="608.377" y1="-383.521" x2="-55.7432" y2="1017" stroke="#FEE0F6"/>
<line x1="563.199" y1="-404.943" x2="-100.921" y2="995.573" stroke="#FEE0F6"/>
<line x1="518.021" y1="-426.367" x2="-146.099" y2="974.149" stroke="#FEE0F6"/>
<line x1="472.843" y1="-447.79" x2="-191.277" y2="952.726" stroke="#FEE0F6"/>
<line x1="427.665" y1="-469.214" x2="-236.455" y2="931.303" stroke="#FEE0F6"/>
<line x1="382.487" y1="-490.636" x2="-281.633" y2="909.88" stroke="#FEE0F6"/>
<line x1="337.309" y1="-512.06" x2="-326.811" y2="888.456" stroke="#FEE0F6"/>
<line x1="292.131" y1="-533.483" x2="-371.989" y2="867.033" stroke="#FEE0F6"/>
<line x1="246.953" y1="-554.906" x2="-417.167" y2="845.61" stroke="#FEE0F6"/>
<line x1="201.775" y1="-576.329" x2="-462.345" y2="824.187" stroke="#FEE0F6"/>
<line x1="156.597" y1="-597.753" x2="-507.523" y2="802.763" stroke="#FEE0F6"/>
<line x1="111.419" y1="-619.176" x2="-552.7" y2="781.34" stroke="#FEE0F6"/>
<line x1="66.2413" y1="-640.599" x2="-597.878" y2="759.917" stroke="#FEE0F6"/>
<line x1="21.0634" y1="-662.022" x2="-643.056" y2="738.494" stroke="#FEE0F6"/>
<line x1="2314.89" y1="102.445" x2="1650.77" y2="1502.96" stroke="#FEE0F6"/>
<line x1="2292.3" y1="91.7338" x2="1628.18" y2="1492.25" stroke="#FEE0F6"/>
<line x1="2269.71" y1="81.0218" x2="1605.59" y2="1481.54" stroke="#FEE0F6"/>
<line x1="2247.13" y1="70.3104" x2="1583.01" y2="1470.83" stroke="#FEE0F6"/>
<line x1="2224.54" y1="59.599" x2="1560.42" y2="1460.11" stroke="#FEE0F6"/>
<line x1="2201.95" y1="48.8871" x2="1537.83" y2="1449.4" stroke="#FEE0F6"/>
<line x1="2179.36" y1="38.1757" x2="1515.24" y2="1438.69" stroke="#FEE0F6"/>
<line x1="2156.77" y1="27.4637" x2="1492.65" y2="1427.98" stroke="#FEE0F6"/>
<line x1="2134.18" y1="16.7523" x2="1470.06" y2="1417.27" stroke="#FEE0F6"/>
<line x1="2111.59" y1="6.04089" x2="1447.47" y2="1406.56" stroke="#FEE0F6"/>
<line x1="2089" y1="-4.67102" x2="1424.88" y2="1395.84" stroke="#FEE0F6"/>
<line x1="2066.41" y1="-15.3824" x2="1402.29" y2="1385.13" stroke="#FEE0F6"/>
<line x1="2043.82" y1="-26.0939" x2="1379.7" y2="1374.42" stroke="#FEE0F6"/>
<line x1="2021.24" y1="-36.8058" x2="1357.12" y2="1363.71" stroke="#FEE0F6"/>
<line x1="1998.65" y1="-47.5172" x2="1334.53" y2="1353" stroke="#FEE0F6"/>
<line x1="1976.06" y1="-58.2291" x2="1311.94" y2="1342.29" stroke="#FEE0F6"/>
<line x1="1953.47" y1="-68.9406" x2="1289.35" y2="1331.58" stroke="#FEE0F6"/>
<line x1="1930.88" y1="-79.652" x2="1266.76" y2="1320.86" stroke="#FEE0F6"/>
<line x1="1908.29" y1="-90.3639" x2="1244.17" y2="1310.15" stroke="#FEE0F6"/>
<line x1="1885.7" y1="-101.075" x2="1221.58" y2="1299.44" stroke="#FEE0F6"/>
<line x1="1863.11" y1="-111.787" x2="1198.99" y2="1288.73" stroke="#FEE0F6"/>
<line x1="1840.52" y1="-122.499" x2="1176.4" y2="1278.02" stroke="#FEE0F6"/>
<line x1="1817.93" y1="-133.21" x2="1153.82" y2="1267.31" stroke="#FEE0F6"/>
<line x1="1795.35" y1="-143.922" x2="1131.23" y2="1256.59" stroke="#FEE0F6"/>
<line x1="1772.76" y1="-154.633" x2="1108.64" y2="1245.88" stroke="#FEE0F6"/>
<line x1="1750.17" y1="-165.345" x2="1086.05" y2="1235.17" stroke="#FEE0F6"/>
<line x1="1727.58" y1="-176.057" x2="1063.46" y2="1224.46" stroke="#FEE0F6"/>
<line x1="1704.99" y1="-186.768" x2="1040.87" y2="1213.75" stroke="#FEE0F6"/>
<line x1="1682.4" y1="-197.48" x2="1018.28" y2="1203.04" stroke="#FEE0F6"/>
<line x1="1659.81" y1="-208.192" x2="995.692" y2="1192.32" stroke="#FEE0F6"/>
<line x1="1637.22" y1="-218.903" x2="973.104" y2="1181.61" stroke="#FEE0F6"/>
<line x1="1614.63" y1="-229.615" x2="950.514" y2="1170.9" stroke="#FEE0F6"/>
<line x1="1592.05" y1="-240.326" x2="927.926" y2="1160.19" stroke="#FEE0F6"/>
<line x1="1569.46" y1="-251.038" x2="905.336" y2="1149.48" stroke="#FEE0F6"/>
<line x1="1546.87" y1="-261.75" x2="882.748" y2="1138.77" stroke="#FEE0F6"/>
<line x1="1524.28" y1="-272.461" x2="860.159" y2="1128.05" stroke="#FEE0F6"/>
<line x1="1501.69" y1="-283.172" x2="837.57" y2="1117.34" stroke="#FEE0F6"/>
<line x1="1479.1" y1="-293.884" x2="814.981" y2="1106.63" stroke="#FEE0F6"/>
<line x1="542.385" y1="-242.803" x2="2073.24" y2="0.0352492" stroke="#FEE0F6"/>
<line x1="537.528" y1="-212.186" x2="2068.39" y2="30.6524" stroke="#FEE0F6"/>
<line x1="532.671" y1="-181.569" x2="2063.53" y2="61.2696" stroke="#FEE0F6"/>
<line x1="527.814" y1="-150.952" x2="2058.67" y2="91.8868" stroke="#FEE0F6"/>
<line x1="522.958" y1="-120.335" x2="2053.82" y2="122.504" stroke="#FEE0F6"/>
<line x1="518.101" y1="-89.7175" x2="2048.96" y2="153.121" stroke="#FEE0F6"/>
<line x1="513.244" y1="-59.1003" x2="2044.1" y2="183.738" stroke="#FEE0F6"/>
<line x1="508.387" y1="-28.4831" x2="2039.25" y2="214.356" stroke="#FEE0F6"/>
<line x1="503.531" y1="2.1341" x2="2034.39" y2="244.973" stroke="#FEE0F6"/>
<line x1="498.674" y1="32.7513" x2="2029.53" y2="275.59" stroke="#FEE0F6"/>
<line x1="493.817" y1="63.3685" x2="2024.68" y2="306.207" stroke="#FEE0F6"/>
<line x1="488.96" y1="93.9857" x2="2019.82" y2="336.824" stroke="#FEE0F6"/>
<line x1="484.103" y1="124.603" x2="2014.96" y2="367.441" stroke="#FEE0F6"/>
<line x1="479.247" y1="155.22" x2="2010.11" y2="398.059" stroke="#FEE0F6"/>
<line x1="474.39" y1="185.837" x2="2005.25" y2="428.676" stroke="#FEE0F6"/>
<line x1="469.533" y1="216.454" x2="2000.39" y2="459.293" stroke="#FEE0F6"/>
<line x1="464.676" y1="247.072" x2="1995.54" y2="489.91" stroke="#FEE0F6"/>
<line x1="459.82" y1="277.689" x2="1990.68" y2="520.527" stroke="#FEE0F6"/>
<line x1="454.963" y1="308.306" x2="1985.82" y2="551.145" stroke="#FEE0F6"/>
<line x1="450.106" y1="338.923" x2="1980.97" y2="581.762" stroke="#FEE0F6"/>
<line x1="-56.2849" y1="373.408" x2="1474.57" y2="616.246" stroke="#F3F3F3"/>
<line x1="-61.1418" y1="404.025" x2="1469.72" y2="646.863" stroke="#F3F3F3"/>
<line x1="-65.9984" y1="434.642" x2="1464.86" y2="677.481" stroke="#F3F3F3"/>
<line x1="-70.8553" y1="465.259" x2="1460" y2="708.098" stroke="#F3F3F3"/>
<line x1="-75.7121" y1="495.876" x2="1455.15" y2="738.715" stroke="#F3F3F3"/>
<line x1="-80.5688" y1="526.493" x2="1450.29" y2="769.332" stroke="#F3F3F3"/>
<line x1="-85.4256" y1="557.111" x2="1445.43" y2="799.949" stroke="#F3F3F3"/>
<line x1="-90.2824" y1="587.728" x2="1440.58" y2="830.567" stroke="#F3F3F3"/>
<line x1="-95.1391" y1="618.345" x2="1435.72" y2="861.184" stroke="#F3F3F3"/>
<line x1="-99.9959" y1="648.962" x2="1430.86" y2="891.801" stroke="#F3F3F3"/>
<line x1="-104.853" y1="679.579" x2="1426.01" y2="922.418" stroke="#F3F3F3"/>
<line x1="-109.71" y1="710.197" x2="1421.15" y2="953.035" stroke="#F3F3F3"/>
<line x1="-114.566" y1="740.814" x2="1416.29" y2="983.652" stroke="#F3F3F3"/>
<line x1="-119.423" y1="771.431" x2="1411.44" y2="1014.27" stroke="#F3F3F3"/>
<line x1="-124.28" y1="802.048" x2="1406.58" y2="1044.89" stroke="#F3F3F3"/>
<line x1="-129.137" y1="832.665" x2="1401.72" y2="1075.5" stroke="#F3F3F3"/>
<line x1="-133.993" y1="863.283" x2="1396.87" y2="1106.12" stroke="#F3F3F3"/>
<line x1="-138.85" y1="893.9" x2="1392.01" y2="1136.74" stroke="#F3F3F3"/>
<line x1="-143.707" y1="924.517" x2="1387.15" y2="1167.36" stroke="#F3F3F3"/>
<line x1="-148.564" y1="955.134" x2="1382.3" y2="1197.97" stroke="#F3F3F3"/>
<line x1="-153.42" y1="985.751" x2="1377.44" y2="1228.59" stroke="#F3F3F3"/>
</g>
<defs>
<clipPath id="clip0_991_42479">
<rect width="1928" height="1229" fill="white" transform="translate(-8.5)"/>
</clipPath>
</defs>
</svg>
